<?xml version="1.0" encoding="UTF-8"?>
<svg id="Layer_2" data-name="Layer 2" xmlns="http://www.w3.org/2000/svg" viewBox="0 0 1441.57 195.47" fill="#6694F0">
  <g id="Layer_1-2" data-name="Layer 1">
    <path d="m367.4,193.21V2.26C367.4,1.01,368.41,0,369.66,0h26.08C396.52,0,397.25.41,397.66,1.08l68.38,111.29c.93,1.52-.18,3.47-1.97,3.44l-6.14-.12c-1.75-.03-2.8-1.96-1.87-3.45L525.35,1.06C525.76.4,526.49,0,527.26,0h24.42C552.93,0,553.94,1.01,553.94,2.26v190.96c0,1.25-1.01,2.26-2.26,2.26h-25.65c-1.25,0-2.26-1.01-2.26-2.26v-77.89c0-16.75.42-31.83,1.26-45.24.65-10.47,1.68-20.89,3.07-31.25.31-2.32,3.53-2.69,4.36-.5l.41,1.08c.25.67.17,1.42-.22,2.02l-62.66,96.86c-.42.64-1.13,1.03-1.89,1.03h-15.96c-.77,0-1.49-.4-1.91-1.05l-60.8-95.85c-.34-.53-.44-1.18-.27-1.79h0c.64-2.38,4.09-2.16,4.42.29,1.22,9.04,2.12,18.24,2.72,27.62.84,13.12,1.26,28.72,1.26,46.77v77.89c0,1.25-1.01,2.26-2.26,2.26h-25.65c-1.25,0-2.26-1.01-2.26-2.26Zm499.27.58L790.62,3.66C789.92,1.91,791.21,0,793.1,0h28.59C822.78,0,823.77.67,824.17,1.69l45.97,116.99c2.23,5.77,4.23,10.99,6,15.64,1.77,4.66,3.3,8.89,4.61,12.71,1.3,3.82,2.51,7.4,3.63,10.75.74,2.23,1.48,4.45,2.23,6.68.56,1.69-.65,3.44-2.43,3.51h0c-1.83.07-3.18-1.67-2.66-3.42,1-3.36,2.04-6.83,3.14-10.4,1.49-4.84,3.21-10.14,5.17-15.92,1.95-5.77,4.33-12.29,7.12-19.55L939.59,1.75C939.97.7,940.97,0,942.09,0h29.37C973.35,0,974.64,1.91,973.93,3.66l-76.6,190.13c-.41,1.01-1.39,1.67-2.47,1.67h-25.71c-1.09,0-2.07-.66-2.48-1.68Zm201.11-30.01h0c0-1-.4-1.95-1.1-2.66l-22.64-22.64c-2.37-2.37-6.42-.69-6.42,2.66v22.64c0,2.08-1.68,3.76-3.76,3.76h-24.03c-2.08,0-3.76,1.68-3.76,3.76v20.4c0,2.08,1.68,3.76,3.76,3.76h85.74c2.08,0,3.76-1.68,3.76-3.76v-20.4c0-2.08-1.68-3.76-3.76-3.76h-24.03c-2.08,0-3.76-1.68-3.76-3.76Zm-1.1-43.3l-22.64-22.64c-2.37-2.37-6.42-.69-6.42,2.66v12.46c0,1,.4,1.95,1.1,2.66l22.64,22.64c2.37,2.37,6.42.69,6.42-2.66v-12.45c0-1-.4-1.95-1.1-2.66Zm-29.06-60.59v12.42c0,1,.4,1.95,1.1,2.66l22.64,22.64c2.37,2.37,6.42.69,6.42-2.66v-12.43c0-1-.4-1.95-1.1-2.66l-22.64-22.64c-2.37-2.37-6.42-.69-6.42,2.66Zm-31.55-56.14v20.4c0,2.08,1.68,3.76,3.76,3.76h24.03c2.08,0,3.76,1.68,3.76,3.76v.03c0,1,.4,1.95,1.1,2.66l22.64,22.64c2.37,2.37,6.42.69,6.42-2.66v-22.67c0-2.08,1.68-3.76,3.76-3.76h24.03c2.08,0,3.76-1.68,3.76-3.76V3.76C1099.33,1.68,1097.65,0,1095.57,0h-85.74C1007.76,0,1006.07,1.68,1006.07,3.76Zm135.88,187.66V4.05C1141.95,1.81,1143.76,0,1146,0h115.04C1263.28,0,1265.1,1.81,1265.1,4.05v20.94c0,2.24-1.81,4.05-4.05,4.05h-84.89c-2.24,0-4.05,1.81-4.05,4.05v129.29c0,2.24,1.81,4.05,4.05,4.05h84.89c2.24,0,4.05,1.81,4.05,4.05v20.94c0,2.24-1.81,4.05-4.05,4.05h-115.04c-2.24,0-4.05-1.81-4.05-4.05Zm13.68-85.73v-20.94c0-2.24,1.81-4.05,4.05-4.05h86c2.24,0,4.05,1.81,4.05,4.05v20.94c0,2.24-1.81,4.05-4.05,4.05h-86c-2.24,0-4.05-1.81-4.05-4.05Zm216.71,89.78c-10.32,0-19.87-1.36-28.64-4.07-8.78-2.71-16.74-6.83-23.89-12.35-5.69-4.39-10.89-9.62-15.61-15.67-2.12-2.72-2.01-6.57.25-9.17l10.42-11.97c2.97-3.41,8.31-3.26,11.11.3,7,8.93,13.77,15.35,20.3,19.27,8.14,4.89,17.82,7.33,29.05,7.33,6.88,0,13.12-1.09,18.73-3.26,5.61-2.17,10.05-5.16,13.3-8.96,3.26-3.8,4.89-8.14,4.89-13.03,0-3.26-.54-6.33-1.63-9.23-1.09-2.89-2.76-5.52-5.02-7.87-2.26-2.35-5.16-4.52-8.69-6.52-3.53-1.99-7.65-3.75-12.35-5.29-4.71-1.54-10.14-2.85-16.29-3.94-9.77-1.99-18.28-4.61-25.52-7.87-7.24-3.26-13.3-7.33-18.19-12.22-4.89-4.89-8.51-10.45-10.86-16.7-2.35-6.24-3.53-13.26-3.53-21.04s1.67-14.66,5.02-21.18c3.35-6.52,7.96-12.17,13.85-16.97,5.88-4.79,12.8-8.51,20.77-11.13C1357.77,1.32,1366.37,0,1375.6,0,1385.37,0,1394.33,1.27,1402.48,3.8c8.14,2.54,15.38,6.29,21.72,11.27,4.79,3.76,8.95,8.17,12.5,13.22,2,2.85,1.59,6.74-.89,9.19l-10.35,10.22c-3.06,3.02-8.11,2.74-10.72-.67-2.38-3.12-4.93-5.9-7.64-8.34-4.53-4.07-9.5-7.15-14.93-9.23-5.43-2.08-11.22-3.12-17.37-3.12-7.06,0-13.21,1.09-18.46,3.26-5.25,2.17-9.37,5.21-12.35,9.09-2.99,3.89-4.48,8.46-4.48,13.71,0,3.8.72,7.29,2.17,10.45,1.45,3.17,3.67,5.97,6.65,8.42s7.01,4.62,12.08,6.52c5.06,1.9,11.13,3.58,18.19,5.02,9.95,2.17,18.82,4.93,26.61,8.28,7.78,3.35,14.39,7.29,19.82,11.81,5.43,4.53,9.54,9.6,12.35,15.2,2.8,5.61,4.21,11.67,4.21,18.19,0,12.13-2.81,22.63-8.42,31.49-5.61,8.87-13.57,15.7-23.89,20.5-10.32,4.79-22.63,7.19-36.92,7.19Zm-589.52-80.72c-5.94,30.94-22.79,54.06-50.34,69.24-14.3,7.88-29.8,11.47-46.12,11.47-31.87.01-63.73,0-95.6,0-.56,0-1.11,0-1.77,0v-16.32h43.4c-2.78-2.14-5.18-3.86-7.45-5.73-19.38-16.04-31.26-36.46-34.87-61.35-6.2-42.77,15-82.88,53.71-102.15,11.1-5.52,22.88-8.69,35.27-9.57.62-.04,1.24-.22,1.85-.34h11.45c3.77.5,7.57.83,11.3,1.54,30.93,5.94,54.02,22.8,69.23,50.32,6.6,11.94,10.2,24.86,11.16,38.49.04.55.21,1.1.32,1.65v11.45c-.5,3.76-.83,7.56-1.54,11.29Zm-66.41-34.57c-.02,13.36,10.99,24.34,24.45,24.39,13.44.05,24.46-11.05,24.41-24.61-.05-13.43-11-24.25-24.54-24.25-13.4,0-24.31,10.97-24.33,24.47Zm-84.11,24.39c13.45,0,24.51-10.95,24.54-24.3.03-13.57-10.93-24.58-24.43-24.55-13.51.03-24.43,10.91-24.43,24.35,0,13.46,10.95,24.5,24.32,24.51Zm63.45,39.37c-.03,13.4,10.9,24.3,24.41,24.36,13.42.05,24.42-11.04,24.41-24.61,0-13.36-11-24.2-24.57-24.22-13.4-.02-24.23,10.9-24.26,24.47Zm-42.66-24.47c-13.53.06-24.49,11-24.42,24.37.07,13.5,11.03,24.5,24.37,24.46,13.59-.04,24.52-10.98,24.46-24.51-.06-13.54-10.94-24.38-24.41-24.32Zm9.1-78.82c-.04,13.49,11.05,24.6,24.5,24.52,13.46-.08,24.37-11.04,24.36-24.46,0-13.45-10.92-24.35-24.4-24.37-13.47-.02-24.42,10.86-24.46,24.31Zm16.34,56.92c-.09,4.65,3.58,8.33,8.23,8.26,4.28-.07,7.86-3.64,7.95-7.92.09-4.65-3.58-8.33-8.23-8.26-4.28.07-7.86,3.64-7.95,7.92Zm-368.54,66.81h-117.31c-1.8,0-2.93-1.95-2.04-3.52L281.06,3.52C281.96,1.95,280.83,0,279.02,0h-136.99C140.22,0,139.09,1.96,140,3.53c3.31,5.65,6.49,11.47,9.17,17.59,3.21,7.31,6.06,9.31,13.26,9.31.98,0,2.05-.05,3.19-.14,6.15-.49,12.76-.72,20.79-.72,5.12,0,10.14.09,15.46.18h.13c5.26.1,10.69.19,16.16.19h15.98c1.81,0,2.94,1.97,2.03,3.53l-92.59,158.41c-.91,1.56.21,3.53,2.02,3.53,26.76.03,53.52.06,80.29.06,25.12,0,47.68-.02,68.83-.06.83,0,1.59-.44,2.01-1.15,5.07-8.6,10.11-17.33,15.29-26.37.9-1.56-.23-3.52-2.03-3.52Zm-142.67-72.24c-13.97-24.01-28-48.42-41.57-72.03l-1.63-2.82c-2.88-5.01-5.76-10.02-8.64-15.03-1.72-2.99-6.05-2.99-7.77,0L.6,188.45c-1.72,2.99.44,6.71,3.89,6.71.03,0,.05,0,.08,0,8.09,0,14.64.1,20.62.3.14,0,.27.01.41.01.16,0,.6,0,.85-.02.17-.18.54-.67,1.22-1.85,17.15-30.21,34.77-60.78,51.81-90.35l.15-.27c5.16-8.95,10.32-17.9,15.48-26.86,1.15-1.99,2.33-3.97,3.71-6.28.67-1.11,1.37-2.31,2.14-3.61l10.77-18.18,36.88,63.62c1.73,2.98,6.03,2.97,7.75,0,3.73-6.45,7.42-12.74,11.22-18.96.01-.02.02-.04.03-.06-.08-.14-.17-.3-.29-.51Z"/>
  </g>
</svg>