<?xml version="1.0" encoding="UTF-8"?>
<svg id="Layer_2" data-name="Layer 2" xmlns="http://www.w3.org/2000/svg" viewBox="0 0 204.48 204.59" fill="#6694F0">
  <g id="Layer_1-2" data-name="Layer 1">
    <path d="m202.87,120.1c-6.22,32.39-23.85,56.58-52.68,72.47-14.97,8.25-31.19,12-48.27,12.01-33.35.02-66.71,0-100.06,0-.58,0-1.16,0-1.85,0v-17.08h45.42c-2.91-2.24-5.42-4.04-7.8-6C17.34,164.72,4.91,143.34,1.13,117.29-5.37,72.52,16.82,30.54,57.34,10.37,68.96,4.59,81.29,1.28,94.25.35,94.91.31,95.55.12,96.19,0h11.99c3.94.53,7.92.87,11.83,1.61,32.38,6.22,56.54,23.86,72.46,52.67,6.9,12.5,10.68,26.02,11.68,40.29.04.58.22,1.15.34,1.73v11.99c-.53,3.94-.86,7.92-1.61,11.81Zm-69.51-36.18c-.02,13.98,11.5,25.47,25.59,25.53,14.07.05,25.6-11.57,25.55-25.76-.05-14.05-11.51-25.38-25.68-25.38-14.03,0-25.44,11.49-25.46,25.61Zm-88.03,25.53c14.07,0,25.66-11.46,25.68-25.44.03-14.2-11.44-25.73-25.57-25.7-14.14.03-25.57,11.42-25.57,25.49,0,14.09,11.46,25.64,25.46,25.65Zm66.41,41.21c-.03,14.03,11.41,25.44,25.55,25.5,14.04.06,25.56-11.56,25.55-25.76,0-13.99-11.51-25.33-25.72-25.35-14.03-.02-25.36,11.41-25.39,25.62Zm-44.65-25.61c-14.16.06-25.63,11.51-25.56,25.5.07,14.13,11.55,25.64,25.51,25.6,14.23-.04,25.66-11.5,25.6-25.65-.07-14.17-11.45-25.52-25.55-25.46Zm9.53-82.5c-.05,14.12,11.57,25.75,25.64,25.67,14.09-.08,25.51-11.55,25.5-25.6,0-14.08-11.43-25.49-25.54-25.51-14.1-.02-25.56,11.37-25.6,25.45Zm17.1,59.58c-.1,4.87,3.74,8.72,8.61,8.64,4.48-.07,8.23-3.81,8.32-8.29.1-4.87-3.74-8.72-8.61-8.64-4.48.07-8.23,3.81-8.32,8.29Z"/>
  </g>
</svg>